<svg xmlns="http://www.w3.org/2000/svg" xmlns:xlink="http://www.w3.org/1999/xlink" style="display:none">
<!-- Personal Icon -->
<symbol id="personal" viewBox="0 0 256 256">
  <rect width="256" height="256" rx="20" fill="#4A4A4A"/>
  <path d="M128 128c22.091 0 40-17.909 40-40s-17.909-40-40-40-40 17.909-40 40 17.909 40 40 40Zm0 20c-35.346 0-64 28.654-64 64v4c0 4.418 3.582 8 8 8h112c4.418 0 8-3.582 8-8v-4c0-35.346-28.654-64-64-64Z" fill="#FFF"/>
</symbol>

  <!-- React Icon -->
  <symbol id="react" viewBox="0 0 569 512">
    <g fill="none" fill-rule="evenodd">
      <g transform="translate(-227, -256)" fill="#58C4DC" fill-rule="nonzero">
        <g transform="translate(227, 256)">
          <path d="M285.5,201 C255.400481,201 231,225.400481 231,255.5 C231,285.599519 255.400481,310 285.5,310 C315.599519,310 340,285.599519 340,255.5 C340,225.400481 315.599519,201 285.5,201" id="Path"></path>
          <path d="M568.959856,255.99437 C568.959856,213.207656 529.337802,175.68144 466.251623,150.985214 C467.094645,145.423543 467.85738,139.922107 468.399323,134.521063 C474.621631,73.0415145 459.808523,28.6686204 426.709856,9.5541429 C389.677085,-11.8291748 337.36955,3.69129898 284.479928,46.0162134 C231.590306,3.69129898 179.282771,-11.8291748 142.25,9.5541429 C109.151333,28.6686204 94.3382249,73.0415145 100.560533,134.521063 C101.102476,139.922107 101.845139,145.443621 102.708233,151.02537 C97.4493791,153.033193 92.2908847,155.161486 87.3331099,157.39017 C31.0111824,182.708821 0,217.765415 0,255.99437 C0,298.781084 39.6220545,336.307301 102.708233,361.003527 C101.845139,366.565197 101.102476,372.066633 100.560533,377.467678 C94.3382249,438.947226 109.151333,483.32012 142.25,502.434597 C153.629683,508.887578 166.52439,512.186771 179.603923,511.991836 C210.956328,511.991836 247.567589,495.487529 284.479928,465.972527 C321.372196,495.487529 358.003528,511.991836 389.396077,511.991836 C402.475265,512.183856 415.36922,508.884856 426.75,502.434597 C459.848667,483.32012 474.661775,438.947226 468.439467,377.467678 C467.897524,372.066633 467.134789,366.565197 466.291767,361.003527 C529.377946,336.347457 569,298.761006 569,255.99437 M389.155214,27.1025182 C397.565154,26.899606 405.877839,28.9368502 413.241569,33.0055186 C436.223966,46.2772304 446.540955,82.2775015 441.522965,131.770345 C441.181741,135.143488 440.780302,138.556788 440.298575,141.990165 C414.066922,134.08804 387.205771,128.452154 360.010724,125.144528 C343.525021,103.224055 325.192524,82.7564475 305.214266,63.9661533 C336.586743,39.7116483 366.032313,27.1025182 389.135142,27.1025182 M378.356498,310.205598 C368.204912,327.830733 357.150626,344.919965 345.237759,361.405091 C325.045049,363.479997 304.758818,364.51205 284.459856,364.497299 C264.167589,364.51136 243.888075,363.479308 223.702025,361.405091 C211.820914,344.919381 200.80007,327.83006 190.683646,310.205598 C180.532593,292.629285 171.306974,274.534187 163.044553,255.99437 C171.306974,237.454554 180.532593,219.359455 190.683646,201.783142 C200.784121,184.229367 211.770999,167.201087 223.601665,150.764353 C243.824636,148.63809 264.145559,147.579168 284.479928,147.591877 C304.772146,147.579725 325.051559,148.611772 345.237759,150.68404 C357.109048,167.14607 368.136094,184.201112 378.27621,201.783142 C388.419418,219.363718 397.644825,237.458403 405.915303,255.99437 C397.644825,274.530337 388.419418,292.625022 378.27621,310.205598 M419.724813,290.127366 C426.09516,307.503536 431.324985,325.277083 435.380944,343.334682 C417.779633,348.823635 399.836793,353.149774 381.668372,356.285142 C388.573127,345.871232 395.263781,335.035679 401.740334,323.778483 C408.143291,312.655143 414.144807,301.431411 419.805101,290.207679 M246.363271,390.377981 C258.848032,391.140954 271.593728,391.582675 284.5,391.582675 C297.406272,391.582675 310.232256,391.140954 322.737089,390.377981 C310.880643,404.583418 298.10766,417.997563 284.5,430.534446 C270.921643,417.999548 258.18192,404.585125 246.363271,390.377981 Z M187.311556,356.244986 C169.137286,353.123646 151.187726,348.810918 133.578912,343.334682 C137.618549,325.305649 142.828222,307.559058 149.174827,290.207679 C154.754833,301.431411 160.736278,312.655143 167.239594,323.778483 C173.74291,334.901824 180.467017,345.864539 187.311556,356.285142 M149.174827,221.760984 C142.850954,204.473938 137.654787,186.794745 133.619056,168.834762 C151.18418,163.352378 169.085653,159.013101 187.211197,155.844146 C180.346585,166.224592 173.622478,176.986525 167.139234,188.210257 C160.65599,199.433989 154.734761,210.517173 149.074467,221.760984 M322.616657,121.590681 C310.131896,120.827708 297.3862,120.385987 284.379568,120.385987 C271.479987,120.385987 258.767744,120.787552 246.242839,121.590681 C258.061488,107.383537 270.801211,93.9691137 284.379568,81.4342157 C297.99241,93.9658277 310.765727,107.380324 322.616657,121.590681 Z M401.70019,188.210257 C395.196875,176.939676 388.472767,166.09743 381.527868,155.68352 C399.744224,158.819049 417.734224,163.151949 435.380944,168.654058 C431.331963,186.680673 426.122466,204.426664 419.785029,221.781062 C414.205023,210.55733 408.203506,199.333598 401.720262,188.230335 M127.517179,131.790423 C122.438973,82.3176579 132.816178,46.2973086 155.778503,33.0255968 C163.144699,28.9632474 171.455651,26.9264282 179.864858,27.1225964 C202.967687,27.1225964 232.413257,39.7317265 263.785734,63.9862316 C243.794133,82.7898734 225.448298,103.270812 208.949132,125.204763 C181.761691,128.528025 154.90355,134.14313 128.661281,141.990165 C128.199626,138.556788 127.778115,135.163566 127.456963,131.790423 M98.4529773,182.106474 C101.54406,180.767925 104.695358,179.429376 107.906872,178.090828 C114.220532,204.735668 122.781793,230.7969 133.498624,255.99437 C122.761529,281.241316 114.193296,307.357063 107.8868,334.058539 C56.7434387,313.076786 27.0971497,284.003505 27.0971497,255.99437 C27.0971497,229.450947 53.1907013,202.526037 98.4529773,182.106474 Z M155.778503,478.963143 C132.816178,465.691432 122.438973,429.671082 127.517179,380.198317 C127.838331,376.825174 128.259842,373.431953 128.721497,369.978497 C154.953686,377.878517 181.814655,383.514365 209.009348,386.824134 C225.500295,408.752719 243.832321,429.233234 263.805806,448.042665 C220.069,481.834331 180.105722,492.97775 155.838719,478.963143 M441.502893,380.198317 C446.520883,429.691161 436.203894,465.691432 413.221497,478.963143 C388.974566,493.017906 348.991216,481.834331 305.274481,448.042665 C325.241364,429.232737 343.566681,408.752215 360.050868,386.824134 C387.245915,383.516508 414.107066,377.880622 440.338719,369.978497 C440.820446,373.431953 441.221885,376.825174 441.563109,380.198317 M461.193488,334.018382 C454.869166,307.332523 446.294494,281.231049 435.561592,255.99437 C446.289797,230.744081 454.857778,204.629101 461.173416,177.930202 C512.216417,198.911955 541.942994,227.985236 541.942994,255.99437 C541.942994,284.003505 512.296705,313.076786 461.153344,334.058539" id="Shape"></path>
        </g>
      </g>
    </g>
  </symbol>
  <!-- Node Icon -->
  <symbol id="node" viewBox="0 0 256 292">
    <defs>
      <linearGradient id="a" x1="68.188%" x2="27.823%" y1="17.487%" y2="89.755%"><stop offset="0%" stop-color="#41873F"/><stop offset="32.88%" stop-color="#418B3D"/><stop offset="63.52%" stop-color="#419637"/><stop offset="93.19%" stop-color="#3FA92D"/><stop offset="100%" stop-color="#3FAE2A"/></linearGradient>
      <linearGradient id="c" x1="43.277%" x2="159.245%" y1="55.169%" y2="-18.306%"><stop offset="13.76%" stop-color="#41873F"/><stop offset="40.32%" stop-color="#54A044"/><stop offset="71.36%" stop-color="#66B848"/><stop offset="90.81%" stop-color="#6CC04A"/></linearGradient>
      <linearGradient id="f" x1="-4.389%" x2="101.499%" y1="49.997%" y2="49.997%"><stop offset="9.192%" stop-color="#6CC04A"/><stop offset="28.64%" stop-color="#66B848"/><stop offset="59.68%" stop-color="#54A044"/><stop offset="86.24%" stop-color="#41873F"/></linearGradient>
      <path id="b" d="M134.923 1.832c-4.344-2.443-9.502-2.443-13.846 0L6.787 67.801C2.443 70.244 0 74.859 0 79.745v132.208c0 4.887 2.715 9.502 6.787 11.945l114.29 65.968c4.344 2.444 9.502 2.444 13.846 0l114.29-65.968c4.344-2.443 6.787-7.058 6.787-11.945V79.745c0-4.886-2.715-9.501-6.787-11.944L134.923 1.832Z"/>
      <path id="e" d="M134.923 1.832c-4.344-2.443-9.502-2.443-13.846 0L6.787 67.801C2.443 70.244 0 74.859 0 79.745v132.208c0 4.887 2.715 9.502 6.787 11.945l114.29 65.968c4.344 2.444 9.502 2.444 13.846 0l114.29-65.968c4.344-2.443 6.787-7.058 6.787-11.945V79.745c0-4.886-2.715-9.501-6.787-11.944L134.923 1.832Z"/>
    </defs>
    <path fill="url(#a)" d="M134.923 1.832c-4.344-2.443-9.502-2.443-13.846 0L6.787 67.801C2.443 70.244 0 74.859 0 79.745v132.208c0 4.887 2.715 9.502 6.787 11.945l114.29 65.968c4.344 2.444 9.502 2.444 13.846 0l114.29-65.968c4.344-2.443 6.787-7.058 6.787-11.945V79.745c0-4.886-2.715-9.501-6.787-11.944L134.923 1.832Z"/>
    <mask id="d" fill="#fff"><use xlink:href="#b"/></mask>
    <path fill="url(#c)" d="M249.485 67.8 134.65 1.833c-1.086-.542-2.443-1.085-3.529-1.357L2.443 220.912c1.086 1.357 2.444 2.443 3.8 3.258l114.834 65.968c3.258 1.9 7.059 2.443 10.588 1.357L252.47 70.515c-.815-1.086-1.9-1.9-2.986-2.714Z" mask="url(#d)"/>
    <mask id="g" fill="#fff"><use xlink:href="#e"/></mask>
    <path fill="url(#f)" d="M249.756 223.898c3.258-1.9 5.701-5.158 6.787-8.687L130.579.204c-3.258-.543-6.787-.272-9.773 1.628L6.786 67.53l122.979 224.238c1.628-.272 3.529-.815 5.158-1.63l114.833-66.239Z" mask="url(#g)"/>
  </symbol>
  <!-- TypeScript Icon -->
  <symbol id="typescript" viewBox="0 0 256 256">
    <rect width="256" height="256" rx="20" fill="#3178C6"/>
    <path d="M150.518 200.475v27.62c4.492 2.302 9.805 4.028 15.938 5.179 6.133 1.151 12.597 1.726 19.393 1.726 6.622 0 12.914-.633 18.874-1.899 5.96-1.266 11.187-3.352 15.678-6.257 4.492-2.906 8.048-6.704 10.669-11.394 2.62-4.689 3.93-10.486 3.93-17.391 0-5.006-.749-9.394-2.246-13.163a30.748 30.748 0 0 0-6.479-10.055c-2.821-2.935-6.205-5.567-10.149-7.898-3.945-2.33-8.394-4.531-13.347-6.602-3.628-1.497-6.881-2.949-9.761-4.359-2.879-1.41-5.327-2.848-7.342-4.316-2.016-1.467-3.571-3.021-4.665-4.661-1.094-1.64-1.641-3.495-1.641-5.567 0-1.899.489-3.61 1.468-5.135s2.362-2.834 4.147-3.927c1.785-1.094 3.973-1.942 6.565-2.547 2.591-.604 5.471-.906 8.638-.906 2.304 0 4.737.173 7.299.518 2.563.345 5.14.877 7.732 1.597a53.669 53.669 0 0 1 7.558 2.719 41.7 41.7 0 0 1 6.781 3.797v-25.807c-4.204-1.611-8.797-2.805-13.778-3.582-4.981-.777-10.697-1.165-17.147-1.165-6.565 0-12.784.705-18.658 2.115-5.874 1.409-11.043 3.61-15.506 6.602-4.463 2.993-7.99 6.805-10.582 11.437-2.591 4.632-3.887 10.17-3.887 16.615 0 8.228 2.375 15.248 7.127 21.06 4.751 5.811 11.963 10.731 21.638 14.759a291.458 291.458 0 0 1 10.625 4.575c3.283 1.496 6.119 3.049 8.509 4.66 2.39 1.611 4.276 3.366 5.658 5.265 1.382 1.899 2.073 4.057 2.073 6.474a9.901 9.901 0 0 1-1.296 4.963c-.863 1.524-2.174 2.848-3.93 3.97-1.756 1.122-3.945 1.999-6.565 2.632-2.62.633-5.687.95-9.2.95-5.989 0-11.92-1.05-17.794-3.151-5.875-2.1-11.317-5.25-16.327-9.451Zm-46.036-68.733H140V109H41v22.742h35.345V233h28.137V131.742Z" fill="#FFF"/>
  </symbol>

  <symbol id="html" viewBox="0 0 452 520">
    <path fill="#e34f26" d="M41 460L0 0h451l-41 460-185 52" />
    <path fill="#ef652a" d="M226 472l149-41 35-394H226" />
    <path fill="#ecedee" d="M226 208h-75l-5-58h80V94H84l15 171h127zm0 147l-64-17-4-45h-56l7 89 117 32z"/>
    <path fill="#fff" d="M226 265h69l-7 73-62 17v59l115-32 16-174H226zm0-171v56h136l5-56z"/>
  </symbol>
  
  <!-- CSS Icon -->
  <symbol id="css" viewBox="0 0 1000 1000">
    <path fill="#639" d="M0 0h840a160 160 0 0 1 160 160v680a160 160 0 0 1-160 160H160A160 160 0 0 1 0 840V0Z"/>
    <path fill="#fff" d="M816.54 919.9c-32.39 0-57.16-9.42-74.5-28.35-17.15-19.03-26.08-46.18-26.88-81.64h69.8c.4 31.36 11.42 47.08 33.08 47.08 11.04 0 18.86-3.5 23.37-10.42 4.41-6.9 6.72-17.93 6.72-33.05 0-12.02-3.01-22.04-8.83-29.95a73.2 73.2 0 0 0-29.48-21.14L783.95 750c-23.06-11.02-39.81-24.04-50.14-39.27-10.03-15.13-15.04-36.36-15.04-63.5 0-30.36 8.83-55 26.37-73.94 18.05-18.93 42.62-28.34 74-28.34 30.3 0 53.76 9.31 70.3 27.84 16.85 18.64 25.67 45.28 26.38 80.14h-67.19c.4-11.4-1.9-22.72-6.72-33.06-3.8-7.6-11.23-11.41-22.26-11.41-19.65 0-29.48 11.71-29.48 35.05 0 11.83 2.4 21.04 7.22 28.05A65.18 65.18 0 0 0 822.76 689l24.77 10.92c25.57 11.72 44.02 26.05 55.35 43.38 11.43 17.23 17.05 40.27 17.05 69.12 0 34.56-9.03 61.1-27.38 79.63-18.25 18.53-43.62 27.85-76 27.85Zm-225.42 0c-32.4 0-57.16-9.42-74.51-28.35-17.15-19.03-26.07-46.18-26.87-81.64h69.79c.4 31.36 11.43 47.08 33.1 47.08 11.02 0 18.84-3.5 23.25-10.42 4.52-6.9 6.72-17.93 6.72-33.05 0-12.02-2.9-22.04-8.72-29.95a73.2 73.2 0 0 0-29.48-21.14L558.53 750c-23.07-11.02-39.81-24.04-50.14-39.27-10.03-15.13-15.04-36.36-15.04-63.5 0-30.36 8.82-55 26.37-73.94 18.05-18.93 42.62-28.34 74-28.34 30.29 0 53.75 9.31 70.2 27.84 17.05 18.64 25.77 45.28 26.47 80.14h-67.18c.4-11.4-1.9-22.72-6.72-33.06-3.81-7.6-11.23-11.41-22.26-11.41-19.66 0-29.49 11.71-29.49 35.05 0 11.83 2.41 21.04 7.22 28.05A65.18 65.18 0 0 0 597.33 689l24.77 10.92c25.57 11.72 44.02 26.05 55.36 43.38 11.33 17.23 17.04 40.27 17.04 69.12 0 34.56-9.12 61.1-27.37 79.63-18.25 18.53-43.62 27.85-76.01 27.85Zm-234.75 0c-31.7 0-56.86-8.62-75.51-25.85-18.65-17.12-27.88-42.87-27.88-76.93V648.83c0-33.85 9.83-59.5 29.48-77.13 19.96-17.43 46.13-26.24 78.52-26.24 31.39 0 56.15 9.01 74.5 26.84 18.56 17.93 27.88 44.58 27.88 80.14v13.32h-73.9v-12.92c0-13.72-3.01-23.84-8.83-30.45a26.46 26.46 0 0 0-21.66-10.32c-12.03 0-20.55 4.1-25.37 12.42a79.04 79.04 0 0 0-6.72 36.66v146.26c0 30.55 10.74 46.08 32.1 46.38 10.02 0 17.54-3.61 22.76-10.82a51.74 51.74 0 0 0 7.72-30.46V801.6h73.9v11.42c0 23.74-4.61 43.57-13.94 59.4a88.8 88.8 0 0 1-38.2 35.66 121.46 121.46 0 0 1-54.85 11.82Z"/>
  </symbol>
  <!-- Instagram Icon -->
  <symbol id="instagram" viewBox="0 0 256 256">
    <path fill="#fff" d="M128 23.064c34.177 0 38.225.13 51.722.745 12.48.57 19.258 2.655 23.769 4.408 5.974 2.322 10.238 5.096 14.717 9.575 4.48 4.479 7.253 8.743 9.575 14.717 1.753 4.511 3.838 11.289 4.408 23.768.615 13.498.745 17.546.745 51.723 0 34.178-.13 38.226-.745 51.723-.57 12.48-2.655 19.257-4.408 23.768-2.322 5.974-5.096 10.239-9.575 14.718-4.479 4.479-8.743 7.253-14.717 9.574-4.511 1.753-11.289 3.839-23.769 4.408-13.495.616-17.543.746-51.722.746-34.18 0-38.228-.13-51.723-.746-12.48-.57-19.257-2.655-23.768-4.408-5.974-2.321-10.239-5.095-14.718-9.574-4.479-4.48-7.253-8.744-9.574-14.718-1.753-4.51-3.839-11.288-4.408-23.768-.616-13.497-.746-17.545-.746-51.723 0-34.177.13-38.225.746-51.722.57-12.48 2.655-19.258 4.408-23.769 2.321-5.974 5.095-10.238 9.574-14.717 4.48-4.48 8.744-7.253 14.718-9.575 4.51-1.753 11.289-3.838 23.768-4.408 13.497-.615 17.545-.745 51.723-.745M128 0C93.237 0 88.878.147 75.226.77c-13.625.622-22.93 2.786-31.071 5.95-8.418 3.271-15.556 7.648-22.672 14.764C14.367 28.6 9.991 35.738 6.72 44.155 3.555 52.297 1.392 61.602.77 75.226.147 88.878 0 93.237 0 128c0 34.763.147 39.122.77 52.774.622 13.625 2.785 22.93 5.95 31.071 3.27 8.417 7.647 15.556 14.763 22.672 7.116 7.116 14.254 11.492 22.672 14.763 8.142 3.165 17.446 5.328 31.07 5.95 13.653.623 18.012.77 52.775.77s39.122-.147 52.774-.77c13.624-.622 22.929-2.785 31.07-5.95 8.418-3.27 15.556-7.647 22.672-14.763 7.116-7.116 11.493-14.254 14.764-22.672 3.164-8.142 5.328-17.446 5.95-31.07.623-13.653.77-18.012.77-52.775s-.147-39.122-.77-52.774c-.622-13.624-2.786-22.929-5.95-31.07-3.271-8.418-7.648-15.556-14.764-22.672C227.4 14.368 220.262 9.99 211.845 6.72c-8.142-3.164-17.447-5.328-31.071-5.95C167.122.147 162.763 0 128 0Zm0 62.27C91.698 62.27 62.27 91.7 62.27 128c0 36.302 29.428 65.73 65.73 65.73 36.301 0 65.73-29.428 65.73-65.73 0-36.301-29.429-65.73-65.73-65.73Zm0 108.397c-23.564 0-42.667-19.103-42.667-42.667S104.436 85.333 128 85.333s42.667 19.103 42.667 42.667-19.103 42.667-42.667 42.667Zm83.686-110.994c0 8.484-6.876 15.36-15.36 15.36-8.483 0-15.36-6.876-15.36-15.36 0-8.483 6.877-15.36 15.36-15.36 8.484 0 15.36 6.877 15.36 15.36Z"/>
  </symbol>
  <!-- X (Twitter) Icon -->
  <symbol id="x" viewBox="0 0 1200 1227">
    <path fill="#fff" d="M714.163 519.284 1160.89 0h-105.86L667.137 450.887 357.328 0H0l468.492 681.821L0 1226.37h105.866l409.625-476.152 327.181 476.152H1200L714.137 519.284h.026ZM569.165 687.828l-47.468-67.894-377.686-540.24h162.604l304.797 435.991 47.468 67.894 396.2 566.721H892.476L569.165 687.854v-.026Z"/>
  </symbol>
  <!-- YouTube Icon -->
  <symbol id="youtube" viewBox="0 0 256 180">
    <path d="M250.346 28.075A32.18 32.18 0 0 0 227.69 5.418C207.824 0 127.87 0 127.87 0S47.912.164 28.046 5.582A32.18 32.18 0 0 0 5.39 28.24c-6.009 35.298-8.34 89.084.165 122.97a32.18 32.18 0 0 0 22.656 22.657c19.866 5.418 99.822 5.418 99.822 5.418s79.955 0 99.82-5.418a32.18 32.18 0 0 0 22.657-22.657c6.338-35.348 8.291-89.1-.164-123.134Z" fill="red"/>
    <path fill="#FFF" d="m102.421 128.06 66.328-38.418-66.328-38.418z"/>
  </symbol>
  <!-- LinkedIn Icon -->
  <symbol id="linkedin" viewBox="0 0 256 256">
    <path d="M218.123 218.127h-37.931v-59.403c0-14.165-.253-32.4-19.728-32.4-19.756 0-22.779 15.434-22.779 31.369v60.43h-37.93V95.967h36.413v16.694h.51a39.907 39.907 0 0 1 35.928-19.733c38.445 0 45.533 25.288 45.533 58.186l-.016 67.013ZM56.955 79.27c-12.157.002-22.014-9.852-22.016-22.009-.002-12.157 9.851-22.014 22.008-22.016 12.157-.003 22.014 9.851 22.016 22.008A22.013 22.013 0 0 1 56.955 79.27m18.966 138.858H37.95V95.967h37.97v122.16ZM237.033.018H18.89C8.58-.098.125 8.161-.001 18.471v219.053c.122 10.315 8.576 18.582 18.89 18.474h218.144c10.336.128 18.823-8.139 18.966-18.474V18.454c-.147-10.33-8.635-18.588-18.966-18.453" fill="#0A66C2"/>
  </symbol>
  <!-- GitHub Icon -->
  <symbol id="github" viewBox="0 0 1024 1024">
    <path fill-rule="evenodd" clip-rule="evenodd" d="M8 0C3.58 0 0 3.58 0 8C0 11.54 2.29 14.53 5.47 15.59C5.87 15.66 6.02 15.42 6.02 15.21C6.02 15.02 6.01 14.39 6.01 13.72C4 14.09 3.48 13.23 3.32 12.78C3.23 12.55 2.84 11.84 2.5 11.65C2.22 11.5 1.82 11.13 2.49 11.12C3.12 11.11 3.57 11.7 3.72 11.94C4.44 13.15 5.59 12.81 6.05 12.6C6.12 12.08 6.33 11.73 6.56 11.53C4.78 11.33 2.92 10.64 2.92 7.58C2.92 6.71 3.23 5.99 3.74 5.43C3.66 5.23 3.38 4.41 3.82 3.31C3.82 3.31 4.49 3.1 6.02 4.13C6.66 3.95 7.34 3.86 8.02 3.86C8.7 3.86 9.38 3.95 10.02 4.13C11.55 3.09 12.22 3.31 12.22 3.31C12.66 4.41 12.38 5.23 12.3 5.43C12.81 5.99 13.12 6.7 13.12 7.58C13.12 10.65 11.25 11.33 9.47 11.53C9.76 11.78 10.01 12.26 10.01 13.01C10.01 14.08 10 14.94 10 15.21C10 15.42 10.15 15.67 10.55 15.59C13.71 14.53 16 11.53 16 8C16 3.58 12.42 0 8 0Z" transform="scale(64)" fill="#fff"/>
  </symbol>
  <!-- Strava Icon -->
  <symbol id="strava" width="512" height="512" style="enable-background:new 0 0 512 512"><path d="M226.172 26.001 90.149 288.345h80.141l55.882-104.309 55.433 104.309h79.511z" style="fill:#f50"/><path d="m361.116 288.345-39.441 79.241-40.07-79.241h-60.734l100.804 197.654 100.176-197.654z" style="fill:#ffaf8a"/></symbol>
  <!-- Twitch Icon -->
  <symbol id="twitch" viewBox="0 0 2400 2800">
    <path fill="#fff" d="m2200 1300-400 400h-400l-350 350v-350H600V200h1600z"/>
    <g fill="#9146ff">
      <path d="M500 0 0 500v1800h600v500l500-500h400l900-900V0H500zm1700 1300-400 400h-400l-350 350v-350H600V200h1600v1100z"/>
      <path d="M1700 550h200v600h-200zm-550 0h200v600h-200z"/>
    </g>
  </symbol>
  <!-- Verified Icon -->
  <symbol id="verified" viewBox="0 0 20 20">
    <path fill-rule="evenodd" d="M10 18a8 8 0 100-16 8 8 0 000 16zm3.707-8.707a1 1 0 00-1.414-1.414L9 11.172l-1.293-1.293a1 1 0 00-1.414 1.414l2 2a1 1 0 001.414 0l4-4z" clip-rule="evenodd" />
  </symbol>

<!-- Laravel Icon -->
<symbol id="laravel" viewBox="0 0 256 264">
  <path d="M255.9 59.6l.1 1.1v56.6c0 1.4-.8 2.8-2 3.5l-47.6 27.4v54.2c0 1.4-.7 2.8-2 3.5l-99.1 57-.7.4-.3.1c-.7.2-1.4.2-2.1 0l-.4-.1-.6-.3L2 206c-1.3-.8-2.1-2.2-2.1-3.6V32.7l.1-1.1.2-.4.3-.6.2-.4.4-.5.4-.3c.2 0 .3-.2.5-.3L51.6.6c1.3-.8 2.9-.8 4.1 0L105.3 29c.2 0 .3.2.4.3l.5.3c0 .2.2.4.3.5l.3.4.3.6.1.4.2 1v106l41.2-23.7V60.7c0-.4 0-.7.2-1l.1-.4.3-.7.3-.3.3-.5.5-.3.4-.4 49.6-28.5c1.2-.7 2.8-.7 4 0L254 57l.5.4.4.3.4.5.2.3c.2.2.2.5.3.7l.2.3ZM247.7 114.9v-47l-17.3 10-24 13.7v47l41.3-23.7ZM198.2 199.9v-47l-23.6 13.5-67.2 38.4v47.5l90.8-52.3ZM8.2 39.9V200l90.9 52.3v-47.5l-47.5-26.9-.4-.4c-.2 0-.3-.1-.4-.3l-.4-.4-.3-.4-.2-.5-.2-.5v-.6l-.2-.5V63.6L25.6 49.8l-17.3-10ZM53.7 8.9L12.4 32.8l41.3 23.7 41.2-23.7L53.7 8.9ZM75 157.3l24-13.8V39.8l-17.3 10-24 13.8v103.6l17.3-10ZM202.3 36.9 161 60.7l41.3 23.8 41.3-23.8-41.3-23.8Zm-4.1 54.7-24-13.8-17.3-10v47l24 13.9 17.3 10v-47Zm-95 106 60.6-34.5 30.2-17.3-41.2-23.8-47.5 27.4L62 174.3l41.2 23.3Z" fill="#FF2D20"/>
</symbol>

<!-- PHP Icon -->
<symbol id="php" viewBox="0 0 24 24">
<path fill="#1E88E5" d="M12 18.08c-6.63 0-12-2.72-12-6.08s5.37-6.08 12-6.08S24 8.64 24 12s-5.37 6.08-12 6.08m-5.19-7.95c.54 0 .91.1 1.09.31c.18.2.22.56.13 1.03c-.1.53-.29.87-.58 1.09q-.42.33-1.29.33h-.87l.53-2.76zm-3.5 5.55h1.44l.34-1.75h1.23c.54 0 .98-.06 1.33-.17c.35-.12.67-.31.96-.58c.24-.22.43-.46.58-.73c.15-.26.26-.56.31-.88c.16-.78.05-1.39-.33-1.82c-.39-.44-.99-.65-1.82-.65H4.59zm7.25-8.33l-1.28 6.58h1.42l.74-3.77h1.14c.36 0 .6.06.71.18s.13.34.07.66l-.57 2.93h1.45l.59-3.07c.13-.62.03-1.07-.27-1.36c-.3-.27-.85-.4-1.65-.4h-1.27L12 7.35zM18 10.13c.55 0 .91.1 1.09.31c.18.2.22.56.13 1.03c-.1.53-.29.87-.57 1.09c-.29.22-.72.33-1.3.33h-.85l.5-2.76zm-3.5 5.55h1.44l.34-1.75h1.22c.55 0 1-.06 1.35-.17c.35-.12.65-.31.95-.58c.24-.22.44-.46.58-.73c.15-.26.26-.56.32-.88c.15-.78.04-1.39-.34-1.82c-.36-.44-.99-.65-1.82-.65h-2.75z"/>
</symbol>

<!--  JavaScript Icon -->
<symbol id="javascript" viewBox="0 0 128 128">
 <path fill="#f0db4f" d="M13 13h99v100H13z" />
  <path fill="#323330"
    d="M104 89c-1-4-3-8-12-12-3-1-7-2-8-5v-3c1-2 4-3 6-2a7 7 0 0 1 4 3l8-4a19 19 0 0 0-3-3c-2-3-6-5-11-5l-3 1c-3 0-6 2-7 4a13 13 0 0 0 2 19c6 4 14 5 15 9 1 5-4 6-8 6-3-1-5-3-7-6l-8 4 3 5c8 7 26 7 29-4v-7zM67 59h-9v24l-1 11c-1 3-5 3-7 2a8 8 0 0 1-3-3l-1-1-7 5a15 15 0 0 0 5 6c4 2 9 3 14 2 3-1 6-3 7-6 2-4 2-9 2-14V59z" />
</symbol>

<!-- TailwindCSS Icon -->
<symbol id="tailwind" viewBox="0 0 128 128">
<path fill="#38bdf8" d="M64.004 25.602c-17.067 0-27.73 8.53-32 25.597c6.398-8.531 13.867-11.73 22.398-9.597c4.871 1.214 8.352 4.746 12.207 8.66C72.883 56.629 80.145 64 96.004 64c17.066 0 27.73-8.531 32-25.602q-9.6 12.803-22.399 9.602c-4.87-1.215-8.347-4.746-12.207-8.66c-6.27-6.367-13.53-13.738-29.394-13.738M32.004 64c-17.066 0-27.73 8.531-32 25.602Q9.603 76.799 22.402 80c4.871 1.215 8.352 4.746 12.207 8.66c6.274 6.367 13.536 13.738 29.395 13.738c17.066 0 27.73-8.53 32-25.597q-9.6 12.797-22.399 9.597c-4.87-1.214-8.347-4.746-12.207-8.66C55.128 71.371 47.868 64 32.004 64m0 0"/>
</symbol>

<!--  Bootstrap Icon -->
<symbol id="bootstrap" viewBox="0 0 256 204">
<path fill="#7E13F8" d="M53.172 0C38.565 0 27.756 12.785 28.24 26.65c.465 13.32-.139 30.573-4.482 44.642C19.402 85.402 12.034 94.34 0 95.488v12.956c12.034 1.148 19.402 10.086 23.758 24.197c4.343 14.069 4.947 31.32 4.482 44.641c-.484 13.863 10.325 26.65 24.934 26.65h149.673c14.608 0 25.414-12.785 24.93-26.65c-.464-13.32.139-30.572 4.482-44.641c4.359-14.11 11.707-23.05 23.741-24.197V95.488c-12.034-1.148-19.382-10.086-23.74-24.196c-4.344-14.067-4.947-31.321-4.483-44.642C228.261 12.787 217.455 0 202.847 0H53.17zM173.56 125.533c0 19.092-14.24 30.67-37.872 30.67h-40.23a4.34 4.34 0 0 1-4.338-4.339V52.068a4.34 4.34 0 0 1 4.339-4.34h39.999c19.705 0 32.637 10.675 32.637 27.063c0 11.503-8.7 21.801-19.783 23.604v.601c15.089 1.655 25.248 12.104 25.248 26.537m-42.26-64.05h-22.937v32.4h19.32c14.934 0 23.17-6.014 23.17-16.764c0-10.073-7.082-15.636-19.552-15.636m-22.937 45.256v35.705h23.782c15.548 0 23.786-6.239 23.786-17.965c0-11.728-8.467-17.742-24.786-17.742h-22.782z"/>
</symbol>

<!--  Java Icon -->
<symbol id="java" viewBox="0 0 128 128">
<path fill="#0074BD" d="M47.617 98.12s-4.767 2.774 3.397 3.71c9.892 1.13 14.947.968 25.845-1.092c0 0 2.871 1.795 6.873 3.351c-24.439 10.47-55.308-.607-36.115-5.969m-2.988-13.665s-5.348 3.959 2.823 4.805c10.567 1.091 18.91 1.18 33.354-1.6c0 0 1.993 2.025 5.132 3.131c-29.542 8.64-62.446.68-41.309-6.336"/><path fill="#EA2D2E" d="M69.802 61.271c6.025 6.935-1.58 13.17-1.58 13.17s15.289-7.891 8.269-17.777c-6.559-9.215-11.587-13.792 15.635-29.58c0 .001-42.731 10.67-22.324 34.187"/><path fill="#0074BD" d="M102.123 108.229s3.529 2.91-3.888 5.159c-14.102 4.272-58.706 5.56-71.094.171c-4.451-1.938 3.899-4.625 6.526-5.192c2.739-.593 4.303-.485 4.303-.485c-4.953-3.487-32.013 6.85-13.743 9.815c49.821 8.076 90.817-3.637 77.896-9.468M49.912 70.294s-22.686 5.389-8.033 7.348c6.188.828 18.518.638 30.011-.326c9.39-.789 18.813-2.474 18.813-2.474s-3.308 1.419-5.704 3.053c-23.042 6.061-67.544 3.238-54.731-2.958c10.832-5.239 19.644-4.643 19.644-4.643m40.697 22.747c23.421-12.167 12.591-23.86 5.032-22.285c-1.848.385-2.677.72-2.677.72s.688-1.079 2-1.543c14.953-5.255 26.451 15.503-4.823 23.725c0-.002.359-.327.468-.617"/><path fill="#EA2D2E" d="M76.491 1.587S89.459 14.563 64.188 34.51c-20.266 16.006-4.621 25.13-.007 35.559c-11.831-10.673-20.509-20.07-14.688-28.815C58.041 28.42 81.722 22.195 76.491 1.587"/><path fill="#0074BD" d="M52.214 126.021c22.476 1.437 57-.8 57.817-11.436c0 0-1.571 4.032-18.577 7.231c-19.186 3.612-42.854 3.191-56.887.874c0 .001 2.875 2.381 17.647 3.331"/>
</symbol>

<!-- Git Icon -->
<symbol id="git" viewBox="0 0 128 128">
<path fill="#F34F29" d="M124.737 58.378L69.621 3.264c-3.172-3.174-8.32-3.174-11.497 0L46.68 14.71l14.518 14.518c3.375-1.139 7.243-.375 9.932 2.314c2.703 2.706 3.461 6.607 2.294 9.993l13.992 13.993c3.385-1.167 7.292-.413 9.994 2.295c3.78 3.777 3.78 9.9 0 13.679a9.673 9.673 0 0 1-13.683 0a9.68 9.68 0 0 1-2.105-10.521L68.574 47.933l-.002 34.341a9.7 9.7 0 0 1 2.559 1.828c3.778 3.777 3.778 9.898 0 13.683c-3.779 3.777-9.904 3.777-13.679 0c-3.778-3.784-3.778-9.905 0-13.683a9.7 9.7 0 0 1 3.167-2.11V47.333a9.6 9.6 0 0 1-3.167-2.111c-2.862-2.86-3.551-7.06-2.083-10.576L41.056 20.333L3.264 58.123a8.133 8.133 0 0 0 0 11.5l55.117 55.114c3.174 3.174 8.32 3.174 11.499 0l54.858-54.858a8.135 8.135 0 0 0-.001-11.501"/>
</symbol>

<!-- GitHub Icon -->
<symbol id="gitHub" viewBox="0 0 20 20">
<path fill="#000000" d="M20 10.25q0 3.351-1.908 6.027t-4.928 3.703q-.352.068-.514-.093a.54.54 0 0 1-.163-.4V16.67q0-1.295-.677-1.895a9 9 0 0 0 1.335-.24q.591-.16 1.223-.52a3.7 3.7 0 0 0 1.055-.888q.423-.528.69-1.402t.267-2.008q0-1.616-1.028-2.75q.48-1.214-.105-2.723q-.364-.12-1.054.147a7 7 0 0 0-1.198.587l-.495.32a9 9 0 0 0-2.5-.346a9 9 0 0 0-2.5.347a12 12 0 0 0-.553-.36q-.345-.214-1.088-.514q-.741-.3-1.12-.18q-.572 1.507-.09 2.722q-1.03 1.134-1.03 2.75q0 1.134.268 2.002q.267.867.683 1.401a3.5 3.5 0 0 0 1.048.894q.632.36 1.224.52q.593.162 1.335.241q-.52.48-.638 1.375a2.5 2.5 0 0 1-.586.2a3.6 3.6 0 0 1-.742.067q-.43 0-.853-.287q-.423-.288-.723-.834a2.1 2.1 0 0 0-.631-.694q-.384-.267-.645-.32l-.26-.04q-.273 0-.378.06t-.065.153a.7.7 0 0 0 .117.187a1 1 0 0 0 .17.16l.09.066q.287.135.567.508q.28.374.41.68l.13.307q.17.507.574.821q.404.315.872.4q.468.087.905.094q.436.006.723-.047l.299-.053q0 .507.007 1.188l.006.72q0 .24-.17.4q-.168.162-.52.094q-3.021-1.028-4.928-3.703Q0 13.6 0 10.25q0-2.79 1.341-5.145a10.1 10.1 0 0 1 3.64-3.73A9.6 9.6 0 0 1 10 0a9.6 9.6 0 0 1 5.02 1.375a10.1 10.1 0 0 1 3.639 3.73Q20 7.461 20 10.25"/>
</symbol>

<!-- MySQL Icon -->
<symbol id="mysql" viewBox="0 0 256 252">
  <path d="M236 194c-14 0-25 1-34 5-3 1-7 1-7 4l3 6c2 3 5 8 9 11l11 8 21 10 11 9 6 4-3-6-5-5c-5-7-11-13-18-18-6-3-18-9-20-15h-1l12-3 18-3 8-2v-2l-9-10c-8-8-18-15-28-22l-18-8c-2-1-6-2-7-4l-7-13-15-30-8-20c-18-30-38-48-68-65-6-4-14-5-22-7l-13-1-8-6C34 5 8-9 1 9c-5 11 7 22 11 28l9 13 3 9c3 8 5 17 9 24l6 10c2 2 4 3 5 6-3 4-3 9-4 13-7 20-4 44 5 59 2 4 9 14 18 10 8-3 6-13 8-22l1-4 8 14c5 9 14 18 22 24 4 3 8 8 13 10l-4-4-9-10c-8-10-14-21-20-32l-7-17-3-6c-3 4-7 7-9 12-3 7-3 17-4 26h-1c-6-1-8-7-10-12-5-12-6-32-1-46 1-4 6-15 4-19-1-3-4-5-6-7l-7-12-10-30-9-13c-3-5-7-8-10-14-1-2-2-5 0-7l2-2c2-2 9 0 11 1 6 3 12 5 17 9l8 6h4c6 1 12 0 17 2 9 3 18 7 25 12 23 14 42 35 54 59 3 4 3 8 5 12l12 26c4 8 7 16 12 23 3 4 14 6 18 8l12 4 18 12c2 2 11 7 12 10Z" fill="#00546B"/>
  <path d="m58 43-7 1 6 7 4 9v-1c3-1 4-4 4-8l-2-4-5-4Z" fill="#00546B"/>
</symbol>

<!-- SQLite Icon -->
<symbol id="sqLite" viewBox="0 0 512 228">
  <path d="M194.5 112c-6.8 0-12.3 2-16.6 6.1-4.3 4-6.4 9.3-6.4 15.8a23.3 23.3 0 0 0 6.5 17c2.2 2.4 6.6 5.6 13.2 9.7 8 5 13.4 9 16 12 2.5 3.2 3.7 6.4 3.7 9.9 0 4.5-1.5 8.2-4.6 11a18 18 0 0 1-12.4 4 20.1 20.1 0 0 1-20.3-20.8h-2.5v22.9h2.5c.8-2.2 1.8-3.3 3.2-3.3.7 0 2.3.4 4.7 1.3 6 2.1 10.9 3.2 14.7 3.2a23 23 0 0 0 17-7 23.2 23.2 0 0 0 2.4-30.8c-3-4-9-8.6-18-14a59.5 59.5 0 0 1-15-11.3c-2.3-3-3.5-6.1-3.5-9.7 0-3.8 1.5-7 4.2-9.2 2.8-2.3 6.5-3.5 11-3.5 5.2 0 9.5 1.5 12.9 4.6 3.3 3 5.3 7.4 5.9 12.8h2.5V113h-2.3a6 6 0 0 1-.8 2c-.3.3-.7.4-1.4.4a17 17 0 0 1-4.3-1 38.6 38.6 0 0 0-12.3-2.3Zm82.4 0a44.6 44.6 0 0 0-39 22.2 43.5 43.5 0 0 0 4.5 50.2c7 8.2 15.3 13.3 25 15.3 2.1 1.1 5.3 4.1 9.4 9 4.7 5.3 8.6 9.3 11.9 11.6A35.6 35.6 0 0 0 311 227c5.3 0 10-.9 14-2.7l-.9-2.3a20.1 20.1 0 0 1-18.7-2.3c-3.6-2.5-8.3-7.1-13.8-14a47.6 47.6 0 0 0-5.4-6.1c10.6-2 19.3-7.2 26-15.4a42.8 42.8 0 0 0 10.2-28 42 42 0 0 0-13.2-31.4 44.8 44.8 0 0 0-32.4-12.9Zm51.4 0 .1 2.7c5.5 0 8.6 1.7 9.3 5 .3 1.1.4 3.3.4 6.4v59.6c0 4.5-.7 7.3-2 8.6-1.1 1.2-3.2 2-6.2 2.3l-.1 2.6h55.1l1.4-13.5h-2.5c-.7 3.7-2.3 6.3-5 7.8a30.5 30.5 0 0 1-14 2.3h-5.2c-6 0-9.5-2.2-10.5-6.6-.2-.9-.2-1.8-.2-2.8l.2-60.3c0-4.4.5-7.4 1.7-8.9 1.2-1.4 3.3-2.3 6.4-2.5l-.2-2.7h-28.7Zm-50.6 3.3a28 28 0 0 1 23 11.2 48 48 0 0 1 8.8 30.5c0 12.3-3 22.1-8.9 29.5a29 29 0 0 1-23.7 11c-9.5 0-17.2-3.8-23-11.4a47.1 47.1 0 0 1-8.9-29.6c0-12.5 3-22.5 9-30 5.9-7.5 13.8-11.2 23.7-11.2Zm126.9 12.8c-1.3 0-2.4.5-3.1 1.4-.8 1-1 2-.8 3.4a6 6 0 0 0 2.2 3.4c1.1 1 2.4 1.4 3.7 1.4 1.3 0 2.3-.5 3-1.4.7-1 1-2.1.7-3.4-.3-1.4-1-2.5-2-3.4a5.6 5.6 0 0 0-3.7-1.4Zm36.4 9.2c-2.3 8.8-7.3 13.5-14.9 14.3l.1 2.5h8.9l-.2 29.8c0 5.1.2 8.5.5 10.2 1 4.2 3.6 6.3 8.1 6.3 6.6 0 13.4-4 20.6-12l-2.2-1.8c-5.2 5.2-9.7 7.8-13.7 7.8-2.5 0-4-1.4-4.6-4.2l-.2-2.4v-33.7h13.7l-.2-4h-13.4v-12.8H441Zm52.4 11.2c-7.6 0-13.7 3.7-18.5 11a31.3 31.3 0 0 0-4.4 24.4 21 21 0 0 0 6.7 12.2 19 19 0 0 0 12.7 4.3c4.7 0 11.4-1.2 14.1-3.7 2.8-2.4 5.4-6.3 7.8-11.7l-2-2a20.6 20.6 0 0 1-17.1 10.5c-8 0-12.8-4.3-14.6-13l-.5-3.5a46 46 0 0 0 21.4-8c4.8-3.8 9.6-7.9 8.7-12.1a9.9 9.9 0 0 0-3.9-6c-2-1.6-7.4-2.4-10.4-2.4Zm-83 .3-16.3 3.8v2.9l5.7-.7c2.7 0 4.3 1.2 4.8 3.7.2.8.3 2 .4 3.4l-.2 26.8c0 3.7-.5 5.8-1.3 6.5-.8.6-3 1-6.6 1v2.5h25.9v-2.5c-3.7 0-6-.3-7-.9-1-.5-1.8-1.5-2.1-3-.2-1.2-.3-3.1-.4-5.7l.1-37.8h-3Zm78.9 5c1.6 0 3 .6 4.6 1.8a7 7 0 0 1 2.8 4c1.4 7-4.9 12-19 14.7a25 25 0 0 1 2.7-14.1c2.3-4.3 5.3-6.4 8.9-6.4Z" fill="#003B57"/>
  <path d="M157.9 10H17C7.7 10 0 17.7 0 27v155.2c0 9.4 7.7 17.2 17.1 17.2h92.7c-1-46.2 14.7-135.7 48-189.5Z" fill="#0F80CC"/>
  <path d="M152.8 15H17C10.5 15 5 20.4 5 27V171c30.7-11.8 76.8-22 108.7-21.5a989.7 989.7 0 0 1 39-134.5Z" fill="url(#a)"/>
  <path d="M190.7 4.9c-9.6-8.6-21.3-5.2-32.8 5a81.4 81.4 0 0 0-5.1 5c-19.7 21-38 59.7-43.7 89.2a81.5 81.5 0 0 1 5.8 17.7l.8 3.5-.9-2.8a173.8 173.8 0 0 0-.8-2 172 172 0 0 0-6.4-12.1l-3.5 11c4.5 8.2 7.3 22.4 7.3 22.4l-1.4-4.1c-1-2.9-6-11.7-7.2-13.7-2 7.5-2.8 12.6-2.1 13.8 1.4 2.4 2.7 6.5 4 11a257.6 257.6 0 0 1 4.6 25c-.3 8.6-.1 17.6.5 25.7a91 91 0 0 0 4.7 24.8l1.5-.8a111 111 0 0 1-3.9-37c.9-22.5 6-49.5 15.6-77.7 16-42.5 38.4-76.6 58.8-93-18.6 17-43.8 71.4-51.4 91.6a365.7 365.7 0 0 0-18 64c6.2-19 26.4-27.2 26.4-27.2s9.8-12.2 21.4-29.6a210 210 0 0 0-22.1 6l-7.1 3s18.1-11 33.7-16C191 73.8 214.2 25.9 190.7 4.9" fill="#003B57"/>
</symbol>

<!-- AdobeXD Icon -->
<symbol id="adobeXD" viewBox="0 0 24 24">
<path fill="#000000" d="M4.25.3C1.9.3 0 2.2 0 4.55v14.9c0 2.35 1.9 4.25 4.25 4.25h15.5c2.35 0 4.25-1.9 4.25-4.25V4.55C24 2.2 22.1.3 19.75.3Zm14.07 5.13h2.03c.05-.01.09.03.1.07v9.54c0 .18.01.38.02.6c.02.21.03.41.04.58c0 .07-.03.13-.1.16c-.52.22-1.07.38-1.63.48c-.51.09-1.02.14-1.54.14c-.74.01-1.48-.14-2.15-.45c-.63-.29-1.15-.77-1.51-1.36c-.37-.61-.55-1.37-.55-2.28a4.11 4.11 0 0 1 2.14-3.66c.7-.39 1.54-.58 2.53-.58c.05 0 .12 0 .21.01s.19.01.31.02V5.54c0-.07.03-.11.1-.11M3.68 6.3h2.27c.05 0 .1.01.14.02c.04.02.07.05.1.09c.19.43.41.86.64 1.29c.24.43.47.85.72 1.27c.24.42.46.84.67 1.27h.02c.21-.44.43-.87.65-1.29s.45-.84.68-1.26s.45-.85.67-1.26c.01-.04.03-.08.06-.1a.2.2 0 0 1 .13-.02h2.11c.05-.01.1.02.11.07c.01.01-.01.05-.03.07l-3 4.95l3.2 5.25c.02.04.03.08.02.12s-.05.01-.11.02h-2.29c-.16 0-.27-.01-.34-.11c-.21-.42-.43-.83-.64-1.25c-.21-.41-.44-.83-.68-1.26s-.48-.86-.72-1.3h-.02c-.21.43-.44.86-.67 1.29s-.46.86-.68 1.28c-.23.42-.46.85-.69 1.26c-.04.1-.12.11-.23.11h-2.2c-.04 0-.07.02-.07-.03a.14.14 0 0 1 .02-.11l3.11-5.1L3.6 6.44c-.03-.04-.04-.08-.02-.1c.02-.03.06-.04.1-.04m13.94 4.23c-.39 0-.78.08-1.13.26c-.34.17-.63.42-.85.74s-.33.75-.33 1.27c-.01.35.05.7.17 1.03c.1.27.25.51.45.71c.19.18.42.32.68.4c.27.09.55.13.83.13c.15 0 .29-.01.42-.02c.13.01.24-.01.36-.05v-4.4a2.6 2.6 0 0 0-.6-.07"/>
</symbol>

<!-- Figma Icon -->
<symbol id="figma" viewBox="0 0 256 384">
<path fill="#0ACF83" d="M64 384c35.328 0 64-28.672 64-64v-64H64c-35.328 0-64 28.672-64 64s28.672 64 64 64"/><path fill="#A259FF" d="M0 192c0-35.328 28.672-64 64-64h64v128H64c-35.328 0-64-28.672-64-64"/><path fill="#F24E1E" d="M0 64C0 28.672 28.672 0 64 0h64v128H64C28.672 128 0 99.328 0 64"/><path fill="#FF7262" d="M128 0h64c35.328 0 64 28.672 64 64s-28.672 64-64 64h-64z"/><path fill="#1ABCFE" d="M256 192c0 35.328-28.672 64-64 64s-64-28.672-64-64s28.672-64 64-64s64 28.672 64 64"/>
</symbol>

<!-- AndrodiStudio -->
<symbol id="android" viewBox="0 0 128 128">
<path fill="#073042" d="M51.3 17.7H23.2C17.6 17.7 13 22.3 13 28c-.2 5.5 4.2 10.1 9.7 10.3h28.9z"/><path fill="#4285F4" d="M115 109.3H23.2c-5.7 0-10.2-4.6-10.2-10.3V27.9c0 5.7 4.6 10.3 10.2 10.4h76.9s15-1.3 15 10v61z"/><path fill="#3870B2" d="M72.2 72.9C76.3 69.8 77.1 64 74 60c-1.7-2.2-4.3-3.6-7.1-3.7h.3c.5-.1 1.1-.1 1.6 0v-5.7c0-.7-.3-1.3-.9-1.6c-.9-.5-2-.2-2.5.7c-.2.3-.3.6-.2 1v5.8c-5 .8-8.5 5.5-7.7 10.6v.1c.4 2.4 1.7 4.6 3.7 6l-16.9 36.2h11l7.8-16.6c.9-2 3.3-2.9 5.4-1.9c.8.4 1.5 1.1 1.9 1.9l8.1 16.6h11.2zm-5.7-1.6c-3.2 0-5.7-2.6-5.7-5.8s2.6-5.7 5.8-5.6c1.5 0 2.8.6 3.9 1.6c2.3 2.2 2.3 5.8.1 8.1c-1 1-2.5 1.7-4.1 1.7"/><path fill="#FFF" d="M45.2 22.7h39.4v7.2H45.2z"/><path fill="#073042" d="M63.5 59.8c3.1 0 5.7 2.6 5.6 5.8c0 3.1-2.6 5.7-5.8 5.6c-3.1 0-5.6-2.6-5.6-5.7c0-1.5.6-2.9 1.7-4s2.6-1.7 4.1-1.7m2.2-3.3v-6c0-.7-.3-1.3-.9-1.6c-.9-.5-2-.2-2.5.7c-.2.3-.3.6-.2 1v5.8c-5 .8-8.5 5.5-7.7 10.6v.1c.4 2.4 1.7 4.6 3.7 6l-21.3 45.7c-.8 1.6-.7 3.6.4 5.1c1.6 2.3 4.7 2.9 7 1.3c.8-.5 1.4-1.3 1.8-2.1l14.2-30.4c.9-2 3.3-2.9 5.4-1.9c.8.4 1.5 1.1 1.9 1.9L82 122.8c1.2 2.5 4.2 3.5 6.7 2.3s3.5-4.2 2.3-6.7L69.1 72.9c4-3.2 4.7-9.1 1.5-13.1c-1.2-1.6-2.9-2.7-4.9-3.3"/><path fill="#3DDC84" d="M78.8 29.1c-1.5 0-2.7-1.1-2.7-2.6c0-.7.3-1.5.8-2c1.1-1 2.7-1 3.8 0c.5.5.8 1.2.8 1.9c-.1 1.5-1.2 2.6-2.7 2.7M49.2 29c-1.5 0-2.7-1.2-2.7-2.6c0-.7.3-1.4.8-1.9c.9-1.1 2.6-1.3 3.7-.4h.1c1.1 1 1.2 2.7.2 3.8l-.3.4c-.5.5-1.2.8-1.9.8m30.5-16.2l5.3-9.2c.3-.5.1-1.1-.3-1.5c-.5-.2-1-.1-1.3.3L77.8 12C69 8.1 59 8.1 50.3 12l-5.4-9.4c-.2-.3-.6-.6-1-.6s-.8.2-1 .6c-.2.3-.2.8 0 1.1l5.4 9.2C38.9 18 32.8 27.6 31.9 38.2h64.2c-.8-10.7-7-20.2-16.4-25.3"/><path fill="#073042" d="M105.6 58.1h-4.2c-.2.1-.4.3-.4.6v66.5c0 .3.2.5.5.5h4.4c5.1 0 9.2-4.2 9.2-9.2V48.8c0 5.1-4.1 9.2-9.2 9.2h-.3z"/>
</symbol>

<!-- Unity -->
<symbol id="unity" viewBox="0 0 256 263">
<path d="M166.9 131.2L212.8 52l22.2 79.2-22.2 79.3-46-79.3zm-22.4 13l46 79.2-80-20.5L52.6 144h91.8zM190.4 39l-45.9 79.3H52.7l57.7-58.8 80-20.5zm65.5 65.2L228 0 123.4 28l-15.5 27.2-31.4-.2L0 131.2l76.5 76.3 31.4-.2 15.5 27.2 104.5 27.9 28-104.2-15.9-27 16-27z" fill="#222C37"/>
</symbol>

<!-- sitioWeb -->
<symbol id="web"  viewBox="0 0 128 128">
<path d="M64,126c34.2,0,62-27.8,62-62S98.2,2,64,2S2,29.8,2,64S29.8,126,64,126z M16,88.7l25.2-0.2c2.8,10.1,7.5,19.9,13.9,28.7   C38,114.4,23.7,103.5,16,88.7z M47.6,47H79c2.3,11,2.3,22.3,0.2,33.3l-31.6,0.2C45.3,69.4,45.3,58,47.6,47z M63.3,114.9   c-6.3-8.1-10.9-17-13.7-26.4l27.5-0.2C74.2,97.7,69.6,106.7,63.3,114.9z M71.3,117.5c6.6-9,11.3-18.9,14.1-29.3l26.9-0.2   C104.5,103.7,89.3,115,71.3,117.5z M118,64c0,5.6-0.9,11-2.4,16l-28.3,0.2c2-11,1.9-22.2-0.2-33.2h28.1C117,52.3,118,58.1,118,64z    M111.8,39H85.2c-2.9-10-7.5-19.7-13.9-28.5C89,12.9,103.9,23.8,111.8,39z M76.9,39H49.7c2.9-9.2,7.4-17.9,13.6-25.9   C69.5,21.1,74,29.8,76.9,39z M55.1,10.8C48.8,19.5,44.2,29,41.4,39H16.2C23.9,24.3,38.1,13.6,55.1,10.8z M39.5,47   c-2.1,11.1-2.1,22.4-0.1,33.5l-26.7,0.2C10.9,75.4,10,69.8,10,64c0-5.9,1-11.7,2.8-17H39.5z"/></g>
</symbol>


</svg>




